<?xml version="1.0" standalone="no"?>
<!DOCTYPE svg PUBLIC "-//W3C//DTD SVG 1.1//EN" "http://www.w3.org/Graphics/SVG/1.1/DTD/svg11.dtd">
<svg xmlns="http://www.w3.org/2000/svg">
<defs >
<font id="Monda" horiz-adv-x="1229" ><font-face
    font-family="Monda"
    units-per-em="2048"
    panose-1="0 0 0 0 0 0 0 0 0 0"
    ascent="2461"
    descent="-875"
    alphabetic="0" />
<glyph unicode=" " glyph-name="space" horiz-adv-x="516" />
<glyph unicode="!" glyph-name="exclam" horiz-adv-x="648" d="M280 410Q263 607 248 787T222 1114T204 1355T197 1477H456Q456 1452 449 1360T428 1124T396 798T356 410H280ZM177 0V266H457V0H177Z" />
<glyph unicode="&quot;" glyph-name="quotedbl" horiz-adv-x="1024" d="M630 872L572 1516H826L749 872H630ZM277 872L198 1516H451L396 872H277Z" />
<glyph unicode="#" glyph-name="numbersign" horiz-adv-x="1372" d="M223 0L309 478H104V618H334L384 896H128V1036H408L487 1477H685L609 1036H868L947 1477H1145L1069 1036H1268V896H1044L996 618H1244V478H971L889 0H683L769 478H512L429 0H223ZM536 618H793L843
896H584L536 618Z" />
<glyph unicode="$" glyph-name="dollar" horiz-adv-x="1281" d="M604 -217V-23Q472 -14 344 20T120 108L222 325Q295 286 392 253T604 210V633L442 681Q322 717 256 777T163 919T136 1094Q136 1224 197 1312T364 1446T604 1500V1692H710V1500Q965 1489 1143 1386L1059
1177Q983 1213 896 1238T710 1267V885L870 837Q1019 792 1094 694T1169 422Q1169 300 1121 200T972 40T710 -26V-217H604ZM428 1104Q428 1031 464 990T604 917V1265Q522 1256 475 1220T428 1104ZM898 412Q898 451 885 485T832 548T710 602V208Q827 214 862 270T898
412Z" />
<glyph unicode="%" glyph-name="percent" horiz-adv-x="1808" d="M428 664Q313 664 248 711T155 844T128 1043V1096Q128 1271 191 1369T428 1467Q601 1467 667 1370T733 1097V1043Q733 871 667 768T428 664ZM546 0L1089 1446H1262L724 0H546ZM428 794Q492 794
522 824T561 908T570 1029V1116Q570 1182 562 1231T525 1309T428 1337Q363 1337 333 1310T296 1233T288 1118V1029Q288 962 296 909T335 825T428 794ZM1376 -19Q1261 -19 1196 28T1103 160T1075 360V413Q1075 588 1139 686T1376 784Q1549 784 1614 687T1680 414V360Q1680
188 1615 85T1376 -19ZM1376 111Q1439 111 1469 141T1508 225T1517 346V433Q1517 499 1510 549T1472 626T1376 654Q1310 654 1281 627T1243 550T1235 435V346Q1235 279 1243 226T1282 142T1376 111Z" />
<glyph unicode="&amp;" glyph-name="ampersand" horiz-adv-x="1526" d="M148 460Q148 611 217 696T432 825Q353 898 305 974T257 1165Q257 1338 368 1422T751 1506Q926 1506 1033 1477T1189 1380T1238 1193V1110H1000V1152Q1000 1221 979 1253T906 1295T759 1305Q658
1305 607 1286T538 1232T521 1149Q521 1110 530 1083T565 1027T637 951L1095 500Q1096 514 1096 531V822H1331V549Q1331 484 1325 419T1305 309L1474 150L1314 -23L1186 103Q1130 39 1027 6T734 -27Q513 -27 385 21T202 177T148 460ZM993 279L559 704Q491 686 462
654T427 574T420 466Q420 363 445 304T538 220T734 195Q789 195 841 199T934 221T993 279Z" />
<glyph unicode="&apos;" glyph-name="quotesingle" horiz-adv-x="649" d="M198 1516H451L396 872H277L198 1516Z" />
<glyph unicode="(" glyph-name="parenleft" horiz-adv-x="946" d="M782 -160Q487 -160 348 -19T208 420V986Q208 1164 260 1296T438 1502T782 1576V1359Q679 1359 614 1331T518 1229T487 1020V390Q487 255 517 183T613 84T782 56V-160Z" />
<glyph unicode=")" glyph-name="parenright" horiz-adv-x="946" d="M181 -160V57Q347 57 411 131T476 395V1025Q476 1152 449 1224T357 1328T181 1359V1576Q476 1576 615 1436T754 996V430Q754 128 615 -16T181 -160Z" />
<glyph unicode="*" glyph-name="asterisk" horiz-adv-x="998" d="M410 629L439 954L166 780L86 941L376 1058L96 1200L191 1353L438 1163L410 1476H588L558 1151L831 1325L912 1164L621 1047L901 905L806 752L559 942L588 629H410Z" />
<glyph unicode="+" glyph-name="plus" horiz-adv-x="966" d="M401 487H132V649H401V968H565V649H834V487H565V156H401V487Z" />
<glyph unicode="," glyph-name="comma" horiz-adv-x="768" d="M242 -343Q268 -314 302 -260T362 -137T388 0H223V276H545V53Q545 -47 509 -137T427 -294T349 -389L242 -343Z" />
<glyph unicode="-" glyph-name="hyphen" horiz-adv-x="868" d="M132 474V662H736V474H132Z" />
<glyph unicode="." glyph-name="period" horiz-adv-x="768" d="M235 284H533V0H235V284Z" />
<glyph unicode="/" glyph-name="slash" horiz-adv-x="1024" d="M675 1516H918L349 0H106L675 1516Z" />
<glyph unicode="0" glyph-name="zero" horiz-adv-x="1420" d="M719 -27Q519 -27 393 48T209 244T150 498V971Q150 1107 207 1228T390 1426T719 1503Q869 1503 974 1458T1144 1337T1240 1165T1270 967V502Q1270 403 1239 309T1142 139T971 18T719 -27ZM719 198Q825
198 882 245T960 360T982 493V979Q982 1044 962 1113T885 1229T719 1277Q609 1277 551 1230T472 1113T450 979V493Q450 429 473 361T555 245T719 198Z" />
<glyph unicode="1" glyph-name="one" horiz-adv-x="1420" d="M203 220H635V1231L226 1177L199 1404L727 1476H932V220H1311V0H203V220Z" />
<glyph unicode="2" glyph-name="two" horiz-adv-x="1420" d="M245 0L209 226L756 719Q834 789 877 843T937 949T955 1065Q955 1168 903 1223T727 1279Q585 1279 526 1216T467 992H162Q162 1256 288 1379T714 1503Q904 1503 1020 1445T1189 1288T1243 1067Q1243
904 1165 784T936 534L578 227H1218V0H245Z" />
<glyph unicode="3" glyph-name="three" horiz-adv-x="1420" d="M720 -27Q437 -27 310 96T182 436H450Q450 297 514 248T723 198Q857 198 917 259T978 439Q978 530 951 582T854 656T654 678V877Q798 877 865 899T951 968T970 1087Q970 1179 916 1229T717 1279Q567
1279 511 1226T455 1033H188Q188 1210 253 1313T436 1459T714 1503Q872 1503 992 1456T1179 1319T1247 1101Q1247 1031 1231 965T1166 850T1023 780Q1157 744 1208 648T1260 426Q1260 297 1206 195T1033 33T720 -27Z" />
<glyph unicode="4" glyph-name="four" horiz-adv-x="1420" d="M839 0V282H170V531L619 1476H924L494 528H839V862H1076V528H1316V282H1076V0H839Z" />
<glyph unicode="5" glyph-name="five" horiz-adv-x="1420" d="M726 -24Q622 -24 519 -3T330 52T195 122L274 321Q479 199 710 199Q844 199 922 262T1001 451Q1001 546 966 600T874 677T747 700Q577 700 461 597L247 704L328 1476H1170V1230H552L512 870Q568 912
637 931T804 950Q943 950 1051 893T1221 725T1283 450Q1283 314 1216 207T1025 38T726 -24Z" />
<glyph unicode="6" glyph-name="six" horiz-adv-x="1420" d="M755 -27Q559 -27 440 37T268 210T214 452Q214 553 231 643T286 827T388 1034L639 1477H959L640 909Q714 929 804 929Q976 929 1080 866T1231 694T1278 452Q1278 323 1230 214T1067 39T755 -27ZM750
192Q850 192 904 230T979 328T1001 455Q1001 522 981 582T907 681T748 720Q645 720 590 682T513 583T492 455Q492 389 515 329T595 230T750 192Z" />
<glyph unicode="7" glyph-name="seven" horiz-adv-x="1420" d="M360 0L898 1230H230V1476H1228V1270L674 0H360Z" />
<glyph unicode="8" glyph-name="eight" horiz-adv-x="1420" d="M707 -22Q508 -22 389 32T217 180T164 389Q164 521 251 620T484 779Q405 815 340 862T235 976T195 1134Q195 1229 246 1312T411 1448T707 1500Q907 1500 1019 1447T1178 1311T1224 1142Q1224 1059
1183 988T1077 864T937 782Q1023 742 1095 689T1211 564T1255 390Q1255 275 1201 182T1027 33T707 -22ZM472 1122Q472 1035 547 981T727 885Q809 918 876 977T944 1116Q944 1160 929 1201T865 1269T713 1296Q576 1296 524 1243T472 1122ZM715 187Q824 187 881 216T958
295T979 409Q979 497 896 561T700 671Q568 622 503 554T438 409Q438 346 461 296T545 216T715 187Z" />
<glyph unicode="9" glyph-name="nine" horiz-adv-x="1420" d="M499 0L818 568Q744 548 654 548Q482 548 378 611T227 783T180 1025Q180 1155 228 1263T391 1438T703 1504Q900 1504 1018 1440T1190 1267T1244 1025Q1244 925 1227 835T1172 650T1070 443L819 0H499ZM710
757Q813 757 868 795T945 895T966 1022Q966 1089 943 1149T864 1247T708 1285Q609 1285 555 1247T479 1149T457 1022Q457 956 477 895T552 796T710 757Z" />
<glyph unicode=":" glyph-name="colon" horiz-adv-x="769" d="M241 284H539V0H241V284ZM241 941H539V657H241V941Z" />
<glyph unicode=";" glyph-name="semicolon" horiz-adv-x="769" d="M256 -342Q282 -313 316 -259T376 -136T402 1H237V277H559V54Q559 -46 523 -136T441 -293T363 -388L256 -342ZM241 941H539V657H241V941Z" />
<glyph unicode="&lt;" glyph-name="less" horiz-adv-x="966" d="M834 127V303L298 563L834 823V999L132 649V477L834 127Z" />
<glyph unicode="=" glyph-name="equal" horiz-adv-x="966" d="M132 667V829H834V667H132ZM132 317V479H834V317H132Z" />
<glyph unicode="&gt;" glyph-name="greater" horiz-adv-x="966" d="M132 127V303L668 563L132 823V999L834 649V477L132 127Z" />
<glyph unicode="?" glyph-name="question" horiz-adv-x="1244" d="M693 740Q765 830 795 898T826 1056Q826 1111 813 1162T756 1246T619 1279Q518 1279 473 1251T416 1170T404 1047V962H130V1036Q130 1138 146 1223T212 1371T359 1467T619 1501Q780 1501 878 1465T1029
1368T1099 1228T1118 1067Q1118 913 1056 804T856 582L674 431H445L693 740ZM413 0V266H693V0H413Z" />
<glyph unicode="@" glyph-name="at" horiz-adv-x="1592" d="M832 -353Q462 -353 293 -195T124 246V625Q124 876 286 1008T769 1140Q1080 1140 1226 1043T1372 743V384Q1372 311 1400 287T1508 263L1485 63H1353Q1197 63 1151 158Q1039 45 828 45Q718 45 647 85T541
193T507 338Q507 464 581 545T816 661L1128 726Q1128 796 1103 843T1001 913T769 937Q552 937 460 855T368 616V251Q368 49 490 -42T832 -134Q955 -134 1085 -102T1323 -18L1382 -231Q1267 -283 1119 -318T832 -353ZM897 246Q975 246 1037 269T1128 337V564L906
518Q820 500 791 462T762 370Q762 313 797 280T897 246Z" />
<glyph unicode="A" glyph-name="A" horiz-adv-x="1512" d="M70 0L556 1476H950L1442 0H1127L1045 281H465L380 0H70ZM535 511H977L760 1254L535 511Z" />
<glyph unicode="B" glyph-name="B" horiz-adv-x="1456" d="M190 0V1476H758Q965 1476 1078 1434T1236 1307T1281 1088Q1281 975 1244 904T1092 804Q1194 790 1248 743T1323 620T1344 448Q1344 216 1225 108T830 0H190ZM487 882H794Q881 882 919 905T968 973T978
1085Q978 1163 960 1203T891 1258T739 1273H487V882ZM487 208H775Q891 208 949 227T1028 299T1048 455Q1048 529 1034 584T968 671T805 703H487V208Z" />
<glyph unicode="C" glyph-name="C" horiz-adv-x="1490" d="M780 -26Q583 -26 461 12T273 120T184 282T160 484V977Q160 1089 183 1184T271 1351T459 1461T780 1501Q969 1501 1084 1463T1260 1354T1341 1190T1362 983V965L1071 931V1006Q1071 1110 1045 1166T956
1245T780 1268Q615 1268 536 1216T457 1012V454Q457 353 492 300T598 227T781 207Q894 207 957 226T1045 300T1071 460V507H1362V480Q1362 371 1342 279T1263 119T1088 12T780 -26Z" />
<glyph unicode="D" glyph-name="D" horiz-adv-x="1534" d="M190 0V1476H830Q1044 1476 1162 1408T1327 1223T1374 961V508Q1374 361 1325 246T1157 66T831 0H190ZM487 231H805Q962 231 1019 289T1077 470V1000Q1077 1120 1019 1182T805 1245H487V231Z" />
<glyph unicode="E" glyph-name="E" horiz-adv-x="1294" d="M190 1476H1157V1252H486V860H1081V646H486V224H1168V0H190V1476Z" />
<glyph unicode="F" glyph-name="F" horiz-adv-x="1173" d="M190 1476H1083V1249H487V847H1042V634H487V0H190V1476Z" />
<glyph unicode="G" glyph-name="G" horiz-adv-x="1607" d="M813 -26Q616 -26 489 12T290 120T189 282T160 484V977Q160 1089 188 1184T288 1351T487 1461T813 1501Q1005 1501 1124 1464T1307 1360T1394 1203T1418 1007V984L1126 962V1021Q1126 1170 1053 1219T813
1268Q648 1268 553 1216T458 1012V454Q458 353 500 300T622 227T813 207Q926 207 1001 226T1113 299T1151 454V562H853V757H1419V0H1262L1215 170Q1209 152 1190 120T1128 55T1009 -2T813 -26Z" />
<glyph unicode="H" glyph-name="H" horiz-adv-x="1624" d="M190 1476H488V848H1136V1476H1434V0H1136V615H488V0H190V1476Z" />
<glyph unicode="I" glyph-name="I" horiz-adv-x="1148" d="M158 222H427V1255H158V1476H990V1255H723V222H990V0H158V222Z" />
<glyph unicode="J" glyph-name="J" horiz-adv-x="1222" d="M70 67L139 287Q212 253 309 231T485 209Q625 209 682 277T739 441V1250H231V1476H1036V422Q1036 209 894 92T504 -25Q396 -25 282 -2T70 67Z" />
<glyph unicode="K" glyph-name="K" horiz-adv-x="1448" d="M487 442V0H190V1476H487V760L1061 1476H1389L861 817L1426 0H1091L650 646L487 442Z" />
<glyph unicode="L" glyph-name="L" horiz-adv-x="1172" d="M190 1476H487V232H1104V0H190V1476Z" />
<glyph unicode="M" glyph-name="M" horiz-adv-x="1874" d="M190 0V1476H517L934 757L1351 1476H1684V0H1406V1091L1037 429H838L468 1066V0H190Z" />
<glyph unicode="N" glyph-name="N" horiz-adv-x="1634" d="M190 1476H413L1180 464V1476H1444V0H1221L457 997V0H190V1476Z" />
<glyph unicode="O" glyph-name="O" horiz-adv-x="1606" d="M814 -26Q615 -26 487 15T288 128T189 296T160 501V963Q160 1075 188 1172T287 1344T486 1459T814 1501Q1005 1501 1128 1457T1321 1337T1418 1160T1446 948V517Q1446 408 1418 311T1321 137T1128 18T814
-26ZM814 207Q982 207 1065 262T1148 468V1003Q1148 1152 1065 1210T814 1268Q649 1268 554 1212T458 1003V468Q458 316 553 262T814 207Z" />
<glyph unicode="P" glyph-name="P" horiz-adv-x="1336" d="M190 1476H769Q1012 1476 1131 1366T1250 1005Q1250 834 1203 725T1045 562T740 509H487V0H190V1476ZM787 726Q900 726 936 791T972 990Q972 1106 937 1185T797 1265H487V726H787Z" />
<glyph unicode="Q" glyph-name="Q" horiz-adv-x="1606" d="M1010 -534L688 -21Q476 -3 362 70T204 255T160 501V963Q160 1075 188 1172T287 1344T486 1459T814 1501Q1005 1501 1128 1457T1321 1337T1418 1160T1446 948V517Q1446 387 1405 273T1257 81T954 -19L1207
-418L1010 -534ZM814 207Q982 207 1065 262T1148 468V1003Q1148 1152 1065 1210T814 1268Q649 1268 554 1212T458 1003V468Q458 316 553 262T814 207Z" />
<glyph unicode="R" glyph-name="R" horiz-adv-x="1484" d="M190 0V1476H827Q1023 1476 1130 1421T1278 1267T1320 1035Q1320 944 1304 865T1240 724T1103 626L1388 0H1080L821 583H487V0H190ZM487 795H852Q928 795 967 825T1021 907T1036 1022Q1036 1082 1024
1138T975 1229T864 1265H487V795Z" />
<glyph unicode="S" glyph-name="S" horiz-adv-x="1281" d="M688 -26Q537 -26 384 10T120 108L222 325Q307 280 425 244T681 207Q772 207 818 233T881 305T898 412Q898 453 884 487T827 551T694 607L442 681Q322 717 256 777T163 919T136 1094Q136 1232 203 1322T387
1456T649 1501Q795 1501 918 1473T1143 1386L1059 1177Q977 1216 880 1242T675 1268Q562 1268 495 1234T428 1104Q428 1028 467 987T619 912L870 837Q1019 792 1094 694T1169 422Q1169 297 1119 196T963 34T688 -26Z" />
<glyph unicode="T" glyph-name="T" horiz-adv-x="1194" d="M449 0V1250H38V1476H1156V1250H745V0H449Z" />
<glyph unicode="U" glyph-name="U" horiz-adv-x="1574" d="M796 -26Q607 -26 486 11T297 115T203 272T176 468V1477H473V455Q473 309 557 258T796 207Q952 207 1026 259T1101 455V1477H1398V480Q1398 375 1373 283T1284 122T1101 13T796 -26Z" />
<glyph unicode="V" glyph-name="V" horiz-adv-x="1484" d="M40 1476H358L748 283L1126 1476H1444L924 0H564L40 1476Z" />
<glyph unicode="W" glyph-name="W" horiz-adv-x="1954" d="M40 1476H328L583 455L842 1476H1093L1389 466L1629 1476H1914L1532 0H1283L973 1053L689 0H423L40 1476Z" />
<glyph unicode="X" glyph-name="X" horiz-adv-x="1352" d="M50 1476H371L679 994L979 1476H1297L830 758L1314 0H993L656 527L348 0H30L505 764L50 1476Z" />
<glyph unicode="Y" glyph-name="Y" horiz-adv-x="1304" d="M509 567L0 1476H313L659 842L1004 1476H1304L805 567V0H509V567Z" />
<glyph unicode="Z" glyph-name="Z" horiz-adv-x="1184" d="M126 177L746 1258H154V1476H1090V1297L472 210H1102V0H126V177Z" />
<glyph unicode="[" glyph-name="bracketleft" horiz-adv-x="842" d="M212 1592H694V1431H485V72H694V-89H212V1592Z" />
<glyph unicode="\" glyph-name="backslash" horiz-adv-x="1024" d="M106 1516H349L918 0H675L106 1516Z" />
<glyph unicode="]" glyph-name="bracketright" horiz-adv-x="842" d="M146 72H356V1431H146V1592H628V-89H146V72Z" />
<glyph unicode="^" glyph-name="asciicircum" horiz-adv-x="1257" d="M486 1283H745L1153 511H926L622 1112L317 511H80L486 1283Z" />
<glyph unicode="_" glyph-name="underscore" horiz-adv-x="874" d="M0 -282V-94H874V-282H0Z" />
<glyph unicode="`" glyph-name="grave" horiz-adv-x="590" d="M341 1165L100 1530H368L490 1165H341Z" />
<glyph unicode="a" glyph-name="a" horiz-adv-x="1174" d="M423 -23Q285 -23 199 57T112 270Q112 346 143 405T256 514T491 613Q616 653 675 687T735 777Q735 842 697 874T566 907Q464 907 432 867T399 765V723H144V755Q144 911 248 1004T572 1097Q733 1097 827
1052T962 926T1003 733V308Q1003 235 1021 213T1090 190L1079 -8H1022Q910 -8 848 23T757 119Q714 62 628 20T423 -23ZM514 158Q564 158 631 186T735 272V544Q708 522 649 496T522 444Q433 411 405 371T377 285Q377 220 415 189T514 158Z" />
<glyph unicode="b" glyph-name="b" horiz-adv-x="1206" d="M655 -23Q567 -23 497 4T374 65L347 0H160V1516H432V1040Q481 1066 537 1081T661 1097Q817 1097 909 1049T1042 923T1082 753V329Q1082 172 967 75T655 -23ZM610 168Q698 168 754 205T810 323V758Q810
838 762 872T623 907Q550 907 499 887T432 857V216Q495 168 610 168Z" />
<glyph unicode="c" glyph-name="c" horiz-adv-x="1111" d="M573 -23Q390 -23 293 25T160 154T124 327V757Q124 918 241 1007T569 1097Q714 1097 811 1062T959 940T1009 699L753 679Q753 777 739 825T687 890T579 907Q492 907 444 873T396 756V322Q396 236 441
202T579 168Q650 168 688 183T740 243T754 380H1008Q1008 232 971 144T839 16T573 -23Z" />
<glyph unicode="d" glyph-name="d" horiz-adv-x="1198" d="M124 324V753Q124 902 229 999T570 1097Q616 1097 669 1087T770 1059V1515H1042V0H858L829 63Q777 26 706 2T551 -23Q333 -23 229 69T124 324ZM770 211V870Q743 883 697 895T593 907Q500 907 448 874T396
759V320Q396 238 444 203T583 168Q639 168 689 180T770 211Z" />
<glyph unicode="e" glyph-name="e" horiz-adv-x="1149" d="M124 336V755Q124 919 248 1008T582 1097Q830 1097 934 1002T1039 745V485H396V310Q396 215 445 191T591 166Q707 166 746 198T786 330H1038Q1038 131 926 54T586 -23Q455 -23 350 9T185 120T124 336ZM782
651V777Q782 837 757 864T688 899T589 907Q507 907 452 883T396 772V651H782Z" />
<glyph unicode="f" glyph-name="f" horiz-adv-x="770" d="M229 901H86V1074H229V1125Q229 1316 314 1416T591 1516H717L724 1327H640Q552 1327 527 1284T501 1186V1074H715V901H501V0H229V901Z" />
<glyph unicode="g" glyph-name="g" horiz-adv-x="1211" d="M574 -441Q474 -441 375 -427T219 -385L275 -200Q351 -221 426 -231T564 -242Q681 -242 734 -192T787 -30V88Q739 60 672 46T543 32Q349 32 237 120T124 366V751Q124 843 163 922T292 1049T533 1097Q622
1097 703 1068T834 997L857 1075H1059V-12Q1059 -211 946 -326T574 -441ZM588 213Q657 213 708 227T787 261V832Q787 853 734 880T588 907Q495 907 446 873T396 757V356Q396 275 449 244T588 213Z" />
<glyph unicode="h" glyph-name="h" horiz-adv-x="1254" d="M162 1515H434V970Q469 1026 563 1061T770 1097Q925 1097 1013 1014T1102 795V0H830V756Q830 813 802 842T732 883T647 894Q598 894 549 877T467 825T434 738V0H162V1515Z" />
<glyph unicode="i" glyph-name="i" horiz-adv-x="519" d="M124 1074H395V0H124V1074ZM122 1515H396V1250H122V1515Z" />
<glyph unicode="j" glyph-name="j" horiz-adv-x="650" d="M-18 -168H27Q97 -168 134 -141T184 -72T198 10V1074H471V-3Q471 -163 384 -262T97 -362H-4L-18 -168ZM197 1515H471V1250H197V1515Z" />
<glyph unicode="k" glyph-name="k" horiz-adv-x="1199" d="M162 1516H434V602L859 1074H1169L765 611L1187 0H890L554 497L434 374V0H162V1516Z" />
<glyph unicode="l" glyph-name="l" horiz-adv-x="708" d="M164 353V1515H436V357Q436 269 477 230T628 190H662L641 -12H527Q348 -12 256 69T164 353Z" />
<glyph unicode="m" glyph-name="m" horiz-adv-x="1894" d="M160 1074H432V978Q448 995 488 1023T594 1074T749 1097Q853 1097 928 1065T1044 964Q1103 1023 1188 1060T1401 1097Q1556 1097 1649 1014T1742 794V0H1470V762Q1470 847 1425 872T1317 897Q1269 897
1218 881T1130 831T1089 750V0H817V762Q817 847 769 872T657 897Q608 897 556 880T468 827T432 739V0H160V1074Z" />
<glyph unicode="n" glyph-name="n" horiz-adv-x="1254" d="M160 1074H432V979Q494 1032 569 1065T761 1098Q882 1098 957 1054T1067 935T1102 770V0H830V755Q830 812 801 842T728 883T641 894Q592 894 544 876T464 823T432 735V0H160V1074Z" />
<glyph unicode="o" glyph-name="o" horiz-adv-x="1180" d="M590 -23Q336 -23 230 71T124 325V748Q124 912 246 1004T590 1097Q810 1097 933 1005T1056 748V325Q1056 219 1012 141T867 20T590 -23ZM590 166Q677 166 730 198T784 313V760Q784 842 733 874T590 907Q502
907 449 875T396 760V313Q396 231 446 199T590 166Z" />
<glyph unicode="p" glyph-name="p" horiz-adv-x="1202" d="M160 -410V1074H350L377 1004Q430 1043 506 1070T677 1097Q866 1097 972 1002T1078 751V326Q1078 234 1031 155T887 26T637 -23Q573 -23 522 -12T432 17V-410H160ZM614 166Q707 166 756 202T806 320V755Q806
836 758 871T623 907Q558 907 507 886T432 841V213Q457 197 502 182T614 166Z" />
<glyph unicode="q" glyph-name="q" horiz-adv-x="1194" d="M770 33Q721 5 660 -9T537 -23Q386 -23 296 24T165 149T124 317V750Q124 908 235 1002T543 1097Q627 1097 700 1070T820 1005L839 1074H1042V-410H770V33ZM588 166Q674 166 721 190T770 220V839Q751 868
706 887T588 907Q501 907 449 873T396 756V308Q396 227 446 197T588 166Z" />
<glyph unicode="r" glyph-name="r" horiz-adv-x="831" d="M160 1074H432V946Q456 988 516 1020T655 1071T811 1090L805 859Q753 856 692 846T575 819T479 777T432 720V0H160V1074Z" />
<glyph unicode="s" glyph-name="s" horiz-adv-x="994" d="M108 61L163 246Q249 209 343 188T517 166Q591 166 627 201T663 299Q663 346 643 372T572 415L336 489Q209 529 162 607T114 793Q114 947 222 1022T500 1097Q638 1097 734 1068T888 1006L824 837Q793 854
742 870T634 896T525 907Q439 907 407 877T375 794Q375 760 391 735T448 696L670 626Q806 583 859 506T912 303Q912 167 816 72T527 -23Q391 -23 292 -3T108 61Z" />
<glyph unicode="t" glyph-name="t" horiz-adv-x="812" d="M206 347V901H64V1074H214L239 1419H478V1074H733V901H478V367Q478 267 521 229T688 190H740L730 -12H656Q494 -12 395 20T251 130T206 347Z" />
<glyph unicode="u" glyph-name="u" horiz-adv-x="1251" d="M485 -23Q331 -23 242 66T152 291V1074H424V335Q424 279 452 246T522 197T606 182Q656 182 705 199T786 253T819 350V1074H1091V0H835L827 118Q795 51 696 14T485 -23Z" />
<glyph unicode="v" glyph-name="v" horiz-adv-x="1103" d="M34 1074H305L560 266L812 1074H1069L705 0H416L34 1074Z" />
<glyph unicode="w" glyph-name="w" horiz-adv-x="1648" d="M46 1074H300L492 305L717 1074H938L1170 295L1349 1074H1602L1316 0H1050L830 741L601 0H343L46 1074Z" />
<glyph unicode="x" glyph-name="x" horiz-adv-x="1082" d="M28 0L396 549L39 1074H331L551 737L759 1074H1044L688 530L1046 0H754L530 346L317 0H28Z" />
<glyph unicode="y" glyph-name="y" horiz-adv-x="1103" d="M148 -485L128 -260Q229 -245 302 -185T422 -3L439 41L34 1074H305L572 346L798 1074H1069L698 12Q611 -237 477 -349T148 -485Z" />
<glyph unicode="z" glyph-name="z" horiz-adv-x="906" d="M104 167L534 901H114V1074H818V910L390 175H813V0H104V167Z" />
<glyph unicode="{" glyph-name="braceleft" horiz-adv-x="992" d="M846 -128Q659 -128 558 -85T418 57T379 322V409Q379 488 363 528T308 581T201 595H188V833H202Q304 833 341 875T379 1036V1139Q379 1280 402 1363T478 1488T622 1543T846 1556V1382Q759 1382
719 1368T669 1317T658 1210V1080Q658 942 621 846T498 722Q587 691 623 605T659 369V252Q659 177 669 132T720 66T846 46V-128Z" />
<glyph unicode="|" glyph-name="bar" horiz-adv-x="692" d="M224 1608H468V-126H224V1608Z" />
<glyph unicode="}" glyph-name="braceright" horiz-adv-x="991" d="M174 -128V46Q261 46 300 66T350 131T361 252V380Q361 530 397 616T522 733Q437 760 400 856T362 1091V1210Q362 1280 352 1317T302 1368T174 1382V1556Q308 1556 398 1543T541 1489T618 1364T641
1139V1047Q641 929 678 887T816 844H832V606H816Q716 606 679 572T641 420V322Q641 156 603 57T463 -85T174 -128Z" />
<glyph unicode="~" glyph-name="asciitilde" horiz-adv-x="1083" d="M743 1115Q682 1115 626 1135T519 1183T422 1231T333 1252Q269 1252 245 1223T221 1148H90Q90 1288 165 1356T340 1425Q402 1425 456 1405T560 1357T654 1310T739 1289Q806 1289 834 1317T862
1392H993Q993 1252 919 1184T743 1115Z" />
<glyph unicode="&#xa0;" glyph-name="uni00A0" horiz-adv-x="516" />
<glyph unicode="&#xa1;" glyph-name="exclamdown" horiz-adv-x="648" d="M368 664Q385 467 400 287T426 -40T444 -281T451 -403H192Q192 -378 199 -286T220 -50T252 276T292 664H368ZM471 1074V808H191V1074H471Z" />
<glyph unicode="&#xa2;" glyph-name="cent" horiz-adv-x="1111" d="M528 -217V-22Q364 -16 277 33T157 160T124 327V757Q124 910 230 998T528 1096V1291H623V1096Q813 1087 911 1001T1009 699L753 679Q753 809 727 854T623 906V169Q702 175 728 216T754 380H1008Q1008
239 975 153T858 25T623 -22V-217H528ZM396 322Q396 249 428 214T528 171V904Q465 895 431 861T396 756V322Z" />
<glyph unicode="&#xa3;" glyph-name="sterling" horiz-adv-x="1285" d="M200 0L255 640H139V800H269L291 1061Q303 1203 353 1304T504 1460T771 1515Q878 1515 975 1485T1130 1415L1059 1214Q980 1249 914 1265T795 1281Q678 1281 637 1214T586 1044L565 800H1001V640H551L516
226H1124V0H200Z" />
<glyph unicode="&#xa4;" glyph-name="currency" horiz-adv-x="1126" d="M560 381Q478 381 415 408T309 480L174 383L126 467L254 559Q216 633 216 723Q216 812 256 892L124 987L177 1067L311 968Q354 1012 416 1038T560 1064Q642 1064 704 1037T809 964L952 1067L999
986L862 886Q899 812 899 723Q899 681 891 640T864 563L1002 465L950 384L811 485Q768 439 705 410T560 381ZM560 528Q657 528 702 587T748 723Q748 799 703 858T560 918Q462 918 415 859T368 723Q368 647 415 588T560 528Z" />
<glyph unicode="&#xa5;" glyph-name="yen" horiz-adv-x="1304" d="M86 540V670H451L357 838H86V968H284L0 1476H313L659 842L1004 1476H1304L1025 968H1228V838H954L862 670H1228V540H805V0H509V540H86Z" />
<glyph unicode="&#xa6;" glyph-name="brokenbar" horiz-adv-x="687" d="M224 1608H463V932H224V1608ZM224 584H463V-126H224V584Z" />
<glyph unicode="&#xa7;" glyph-name="section" horiz-adv-x="1008" d="M520 -14Q382 -14 286 16T132 87L196 246Q228 230 278 214T386 187T495 176Q581 176 613 206T645 289Q645 323 629 348T572 387L350 457Q214 500 161 577T108 780Q108 908 186 993Q155 1033
142 1083T128 1193Q128 1347 236 1422T514 1497Q652 1497 748 1463T902 1396L838 1227Q807 1244 756 1262T648 1294T539 1307Q453 1307 421 1277T389 1194Q389 1160 405 1135T462 1096L684 1026Q820 983 873 906T926 703Q926 575 848 490Q879 450 892 400T906 290Q906
136 798 61T520 -14ZM407 679L670 596Q717 627 717 689Q717 736 697 762T627 804L364 887Q317 856 317 794Q317 747 337 721T407 679Z" />
<glyph unicode="&#xa8;" glyph-name="dieresis" horiz-adv-x="874" d="M100 1484H364V1251H100V1484ZM509 1484H774V1251H509V1484Z" />
<glyph unicode="&#xa9;" glyph-name="copyright" horiz-adv-x="1776" d="M888 -14Q733 -14 600 41T366 197T209 431T152 722Q152 878 208 1012T365 1245T599 1400T888 1456Q1044 1456 1178 1401T1412 1246T1568 1012T1624 722Q1624 565 1568 431T1412 197T1178
42T888 -14ZM890 82Q1073 82 1215 166T1437 395T1518 722Q1518 904 1438 1048T1215 1277T890 1361Q708 1361 566 1277T343 1049T261 722Q261 540 342 395T566 166T890 82ZM899 287Q756 287 680 325T575 432T547 590V868Q547 959 575 1030T678 1141T898 1182Q1037
1182 1106 1140T1200 1025T1224 861V836L1108 826V890Q1108 1004 1060 1047T898 1091Q785 1091 726 1048T667 890V571Q667 457 726 417T899 376Q1014 376 1061 416T1108 571V632H1224V598Q1224 510 1200 440T1107 328T899 287Z" />
<glyph unicode="&#xaa;" glyph-name="ordfeminine" horiz-adv-x="1024" d="M385 525Q271 525 202 595T133 783Q133 844 150 888T227 969T408 1045Q505 1076 553 1097T617 1144T633 1212Q633 1268 604 1296T500 1324Q418 1324 392 1290T365 1202V1166H160V1193Q160
1327 243 1406T505 1486Q699 1486 776 1402T853 1174V820Q853 757 870 733T939 709L921 539H836Q746 539 711 574T652 664Q617 615 549 570T385 525ZM457 692Q498 692 550 711T632 778V1010Q612 991 565 970T462 932Q392 911 368 877T343 801Q343 692 457 692Z"
/>
<glyph unicode="&#xab;" glyph-name="guillemotleft" horiz-adv-x="1024" d="M67 530L340 980L487 910L280 530L487 150L347 80L67 530ZM481 530L754 980L899 910L695 530L899 150L761 80L481 530Z" />
<glyph unicode="&#xac;" glyph-name="logicalnot" horiz-adv-x="967" d="M671 487H132V649H835V256H671V487Z" />
<glyph unicode="&#xad;" glyph-name="uni00AD" horiz-adv-x="868" d="M132 474V662H736V474H132Z" />
<glyph unicode="&#xae;" glyph-name="registered" horiz-adv-x="1776" d="M892 -14Q737 -14 604 41T370 197T213 431T156 722Q156 878 212 1012T369 1245T603 1400T892 1456Q1048 1456 1182 1401T1416 1246T1572 1012T1628 722Q1628 565 1572 431T1416 197T1182
42T892 -14ZM894 82Q1077 82 1219 166T1441 395T1522 722Q1522 904 1442 1048T1219 1277T894 1361Q712 1361 570 1277T347 1049T265 722Q265 540 346 395T570 166T894 82ZM585 319V1153H1008Q1133 1153 1192 1092T1251 908V894Q1251 786 1210 736T1099 666L1283
319H1155L975 652H716V319H585ZM716 742H983Q1055 742 1087 781T1119 887V911Q1119 950 1112 984T1078 1040T992 1062H716V742Z" />
<glyph unicode="&#xaf;" glyph-name="overscore" horiz-adv-x="784" d="M100 1433H684V1266H100V1433Z" />
<glyph unicode="&#xb0;" glyph-name="degree" horiz-adv-x="842" d="M421 850Q249 850 160 943T70 1180Q70 1323 159 1417T421 1511Q594 1511 683 1417T772 1180Q772 1037 683 944T421 850ZM421 1023Q501 1023 540 1065T580 1181Q580 1255 541 1297T421 1339Q341
1339 302 1297T262 1181Q262 1108 301 1066T421 1023Z" />
<glyph unicode="&#xb1;" glyph-name="plusminus" horiz-adv-x="1044" d="M440 587H171V749H440V968H604V749H873V587H604V356H440V587ZM171 85V247H873V85H171Z" />
<glyph unicode="&#xb2;" glyph-name="uni00B2" horiz-adv-x="829" d="M140 890L118 1026L429 1320Q497 1385 521 1427T546 1519Q546 1566 516 1597T419 1628Q341 1628 307 1594T273 1486H90Q90 1637 169 1717T421 1798Q592 1798 665 1719T739 1531Q739 1433 690
1363T555 1211L376 1042H724V890H140Z" />
<glyph unicode="&#xb3;" glyph-name="uni00B3" horiz-adv-x="827" d="M413 873Q244 873 167 947T90 1151H271Q271 1043 411 1043Q476 1043 510 1069T544 1162Q544 1230 508 1258T373 1286V1426Q467 1426 501 1449T536 1524Q536 1570 508 1595T411 1621Q339 1621
307 1593T274 1509H94Q94 1669 179 1730T409 1791Q552 1791 640 1729T729 1550Q729 1492 708 1438T617 1356Q684 1326 710 1271T737 1145Q737 1029 662 951T413 873Z" />
<glyph unicode="&#xb4;" glyph-name="acute" horiz-adv-x="590" d="M222 1530H490L249 1165H100L222 1530Z" />
<glyph unicode="&#xb5;" glyph-name="uni00B5" horiz-adv-x="1246" d="M148 -236V1074H420V308Q420 252 448 221T518 178T602 166Q652 166 701 183T782 233T815 317V1074H1088V0H821L815 135Q787 65 722 23T562 -19Q484 -19 400 2V-236H148Z" />
<glyph unicode="&#xb6;" glyph-name="paragraph" horiz-adv-x="1222" d="M447 0V859Q281 859 188 935T95 1173Q95 1335 190 1405T462 1476H1022V0H810V1274H659V0H447Z" />
<glyph unicode="&#xb7;" glyph-name="middot" horiz-adv-x="448" d="M100 865H348V620H100V865Z" />
<glyph unicode="&#xb8;" glyph-name="cedilla" horiz-adv-x="592" d="M100 -485V-363H278Q310 -363 322 -350T334 -317V-259Q334 -239 320 -226T278 -213H188V30H319V-93Q409 -103 450 -145T492 -262V-312Q492 -383 446 -434T287 -485H100Z" />
<glyph unicode="&#xb9;" glyph-name="uni00B9" horiz-adv-x="778" d="M93 1042H317V1606L110 1577L90 1733L387 1776H510V1042H718V890H93V1042Z" />
<glyph unicode="&#xba;" glyph-name="ordmasculine" horiz-adv-x="1024" d="M513 523Q307 523 222 603T136 822V1186Q136 1327 234 1406T512 1486Q690 1486 789 1407T888 1186V822Q888 685 806 604T513 523ZM511 686Q667 686 667 813V1198Q667 1269 627 1297T512
1325Q442 1325 399 1297T356 1198V813Q356 743 396 715T511 686Z" />
<glyph unicode="&#xbb;" glyph-name="guillemotright" horiz-adv-x="1024" d="M154 150L358 530L154 910L292 980L572 530L299 80L154 150ZM566 150L773 530L566 910L706 980L986 530L713 80L566 150Z" />
<glyph unicode="&#xbc;" glyph-name="onequarter" horiz-adv-x="1891" d="M93 742H317V1306L110 1277L90 1433L387 1476H510V742H718V590H93V742ZM1219 1505H1393L752 0H578L1219 1505ZM1545 0V170H1153V319L1408 886H1613L1359 322H1545V530H1737V322H1841V170H1737V0H1545Z"
/>
<glyph unicode="&#xbd;" glyph-name="onehalf" horiz-adv-x="1917" d="M93 742H317V1306L110 1277L90 1433L387 1476H510V742H718V590H93V742ZM1219 1505H1393L752 0H578L1219 1505ZM1228 0L1206 136L1517 430Q1585 495 1609 537T1634 629Q1634 676 1604 707T1507
738Q1429 738 1395 704T1361 596H1178Q1178 747 1257 827T1509 908Q1680 908 1753 829T1827 641Q1827 543 1778 473T1643 321L1464 152H1812V0H1228Z" />
<glyph unicode="&#xbe;" glyph-name="threequarters" horiz-adv-x="1940" d="M413 573Q244 573 167 647T90 851H271Q271 743 411 743Q476 743 510 769T544 862Q544 930 508 958T373 986V1126Q467 1126 501 1149T536 1224Q536 1270 508 1295T411 1321Q339 1321
307 1293T274 1209H94Q94 1369 179 1430T409 1491Q552 1491 640 1429T729 1250Q729 1192 708 1138T617 1056Q684 1026 710 971T737 845Q737 729 662 651T413 573ZM1268 1505H1442L801 0H627L1268 1505ZM1594 0V170H1202V319L1457 886H1662L1408 322H1594V530H1786V322H1890V170H1786V0H1594Z"
/>
<glyph unicode="&#xbf;" glyph-name="questiondown" horiz-adv-x="1244" d="M555 334Q483 244 453 176T422 18Q422 -37 435 -88T492 -172T629 -205Q730 -205 775 -177T832 -96T844 27V112H1118V38Q1118 -64 1102 -149T1036 -297T889 -393T629 -427Q468 -427 370
-391T219 -294T149 -154T130 7Q130 161 192 270T392 492L574 643H803L555 334ZM835 1074V808H555V1074H835Z" />
<glyph unicode="&#xc0;" glyph-name="Agrave" horiz-adv-x="1512" d="M70 0L556 1476H950L1442 0H1127L1045 281H465L380 0H70ZM535 511H977L760 1254L535 511ZM754 2022L916 1657H717L436 2022H754Z" />
<glyph unicode="&#xc1;" glyph-name="Aacute" horiz-adv-x="1512" d="M70 0L556 1476H950L1442 0H1127L1045 281H465L380 0H70ZM535 511H977L760 1254L535 511ZM758 2022H1076L795 1657H596L758 2022Z" />
<glyph unicode="&#xc2;" glyph-name="Acircumflex" horiz-adv-x="1512" d="M70 0L556 1476H950L1442 0H1127L1045 281H465L380 0H70ZM535 511H977L760 1254L535 511ZM380 1638L657 1993H855L1132 1638H953L756 1813L559 1638H380Z" />
<glyph unicode="&#xc3;" glyph-name="Atilde" horiz-adv-x="1512" d="M70 0L556 1476H950L1442 0H1127L1045 281H465L380 0H70ZM535 511H977L760 1254L535 511ZM882 1648Q817 1648 776 1663T706 1699T655 1735T601 1751Q573 1751 555 1731T537 1664H403Q403 1804
465 1864T630 1924Q696 1924 736 1909T803 1873T852 1838T903 1822Q933 1822 954 1841T975 1908H1109Q1109 1768 1047 1708T882 1648Z" />
<glyph unicode="&#xc4;" glyph-name="Adieresis" horiz-adv-x="1512" d="M70 0L556 1476H950L1442 0H1127L1045 281H465L380 0H70ZM535 511H977L760 1254L535 511ZM419 1916H683V1683H419V1916ZM828 1916H1093V1683H828V1916Z" />
<glyph unicode="&#xc5;" glyph-name="Aring" horiz-adv-x="1512" d="M70 0L556 1476H950L1442 0H1127L1045 281H465L380 0H70ZM535 511H977L760 1254L535 511ZM756 1540Q630 1540 558 1605T486 1790Q486 1909 558 1973T756 2038Q881 2038 953 1974T1026 1790Q1026
1670 954 1605T756 1540ZM756 1699Q793 1699 817 1717T842 1789Q842 1842 818 1861T755 1881Q718 1881 694 1863T670 1791Q670 1737 694 1718T756 1699Z" />
<glyph unicode="&#xc6;" glyph-name="AE" horiz-adv-x="1834" d="M893 414H514L393 0H83L539 1477H1700V1249H1173V858H1630V645H1173V227H1710V0H893V414ZM893 1249H757L581 644H893V1249Z" />
<glyph unicode="&#xc7;" glyph-name="Ccedilla" horiz-adv-x="1490" d="M780 -26Q583 -26 461 12T273 120T184 282T160 484V977Q160 1089 183 1184T271 1351T459 1461T780 1501Q969 1501 1084 1463T1260 1354T1341 1190T1362 983V965L1071 931V1006Q1071 1110
1045 1166T956 1245T780 1268Q615 1268 536 1216T457 1012V454Q457 353 492 300T598 227T781 207Q894 207 957 226T1045 300T1071 460V507H1362V480Q1362 371 1342 279T1263 119T1088 12T780 -26ZM622 -485V-363H800Q832 -363 844 -350T856 -317V-259Q856 -239
842 -226T800 -213H710V30H841V-93Q931 -103 972 -145T1014 -262V-312Q1014 -383 968 -434T809 -485H622Z" />
<glyph unicode="&#xc8;" glyph-name="Egrave" horiz-adv-x="1294" d="M190 1476H1157V1252H486V860H1081V646H486V224H1168V0H190V1476ZM673 2022L835 1657H636L355 2022H673Z" />
<glyph unicode="&#xc9;" glyph-name="Eacute" horiz-adv-x="1294" d="M190 1476H1157V1252H486V860H1081V646H486V224H1168V0H190V1476ZM677 2022H995L714 1657H515L677 2022Z" />
<glyph unicode="&#xca;" glyph-name="Ecircumflex" horiz-adv-x="1294" d="M190 1476H1157V1252H486V860H1081V646H486V224H1168V0H190V1476ZM299 1638L576 1993H774L1051 1638H872L675 1813L478 1638H299Z" />
<glyph unicode="&#xcb;" glyph-name="Edieresis" horiz-adv-x="1294" d="M190 1476H1157V1252H486V860H1081V646H486V224H1168V0H190V1476ZM338 1916H602V1683H338V1916ZM747 1916H1012V1683H747V1916Z" />
<glyph unicode="&#xcc;" glyph-name="Igrave" horiz-adv-x="1148" d="M158 222H427V1255H158V1476H990V1255H723V222H990V0H158V222ZM572 2022L734 1657H535L254 2022H572Z" />
<glyph unicode="&#xcd;" glyph-name="Iacute" horiz-adv-x="1148" d="M158 222H427V1255H158V1476H990V1255H723V222H990V0H158V222ZM576 2022H894L613 1657H414L576 2022Z" />
<glyph unicode="&#xce;" glyph-name="Icircumflex" horiz-adv-x="1148" d="M158 222H427V1255H158V1476H990V1255H723V222H990V0H158V222ZM198 1638L475 1993H673L950 1638H771L574 1813L377 1638H198Z" />
<glyph unicode="&#xcf;" glyph-name="Idieresis" horiz-adv-x="1148" d="M158 222H427V1255H158V1476H990V1255H723V222H990V0H158V222ZM237 1916H501V1683H237V1916ZM646 1916H911V1683H646V1916Z" />
<glyph unicode="&#xd0;" glyph-name="Eth" horiz-adv-x="1534" d="M190 0V706H9V854H190V1476H830Q1044 1476 1162 1408T1327 1223T1374 961V508Q1374 361 1325 246T1157 66T831 0H190ZM487 231H805Q962 231 1019 289T1077 470V1000Q1077 1120 1019 1182T805 1245H487V854H713V706H487V231Z"
/>
<glyph unicode="&#xd1;" glyph-name="Ntilde" horiz-adv-x="1634" d="M190 1476H413L1180 464V1476H1444V0H1221L457 997V0H190V1476ZM943 1648Q878 1648 837 1663T767 1699T716 1735T662 1751Q634 1751 616 1731T598 1664H464Q464 1804 526 1864T691 1924Q757
1924 797 1909T864 1873T913 1838T964 1822Q994 1822 1015 1841T1036 1908H1170Q1170 1768 1108 1708T943 1648Z" />
<glyph unicode="&#xd2;" glyph-name="Ograve" horiz-adv-x="1606" d="M814 -26Q615 -26 487 15T288 128T189 296T160 501V963Q160 1075 188 1172T287 1344T486 1459T814 1501Q1005 1501 1128 1457T1321 1337T1418 1160T1446 948V517Q1446 408 1418 311T1321 137T1128
18T814 -26ZM814 207Q982 207 1065 262T1148 468V1003Q1148 1152 1065 1210T814 1268Q649 1268 554 1212T458 1003V468Q458 316 553 262T814 207ZM801 2022L963 1657H764L483 2022H801Z" />
<glyph unicode="&#xd3;" glyph-name="Oacute" horiz-adv-x="1606" d="M814 -26Q615 -26 487 15T288 128T189 296T160 501V963Q160 1075 188 1172T287 1344T486 1459T814 1501Q1005 1501 1128 1457T1321 1337T1418 1160T1446 948V517Q1446 408 1418 311T1321 137T1128
18T814 -26ZM814 207Q982 207 1065 262T1148 468V1003Q1148 1152 1065 1210T814 1268Q649 1268 554 1212T458 1003V468Q458 316 553 262T814 207ZM805 2022H1123L842 1657H643L805 2022Z" />
<glyph unicode="&#xd4;" glyph-name="Ocircumflex" horiz-adv-x="1606" d="M814 -26Q615 -26 487 15T288 128T189 296T160 501V963Q160 1075 188 1172T287 1344T486 1459T814 1501Q1005 1501 1128 1457T1321 1337T1418 1160T1446 948V517Q1446 408 1418 311T1321
137T1128 18T814 -26ZM814 207Q982 207 1065 262T1148 468V1003Q1148 1152 1065 1210T814 1268Q649 1268 554 1212T458 1003V468Q458 316 553 262T814 207ZM427 1638L704 1993H902L1179 1638H1000L803 1813L606 1638H427Z" />
<glyph unicode="&#xd5;" glyph-name="Otilde" horiz-adv-x="1606" d="M814 -26Q615 -26 487 15T288 128T189 296T160 501V963Q160 1075 188 1172T287 1344T486 1459T814 1501Q1005 1501 1128 1457T1321 1337T1418 1160T1446 948V517Q1446 408 1418 311T1321 137T1128
18T814 -26ZM814 207Q982 207 1065 262T1148 468V1003Q1148 1152 1065 1210T814 1268Q649 1268 554 1212T458 1003V468Q458 316 553 262T814 207ZM929 1648Q864 1648 823 1663T753 1699T702 1735T648 1751Q620 1751 602 1731T584 1664H450Q450 1804 512 1864T677
1924Q743 1924 783 1909T850 1873T899 1838T950 1822Q980 1822 1001 1841T1022 1908H1156Q1156 1768 1094 1708T929 1648Z" />
<glyph unicode="&#xd6;" glyph-name="Odieresis" horiz-adv-x="1606" d="M814 -26Q615 -26 487 15T288 128T189 296T160 501V963Q160 1075 188 1172T287 1344T486 1459T814 1501Q1005 1501 1128 1457T1321 1337T1418 1160T1446 948V517Q1446 408 1418 311T1321
137T1128 18T814 -26ZM814 207Q982 207 1065 262T1148 468V1003Q1148 1152 1065 1210T814 1268Q649 1268 554 1212T458 1003V468Q458 316 553 262T814 207ZM466 1916H730V1683H466V1916ZM875 1916H1140V1683H875V1916Z" />
<glyph unicode="&#xd7;" glyph-name="multiply" horiz-adv-x="1025" d="M154 344L392 576L154 806L265 937L513 694L761 937L871 806L634 576L871 344L761 216L513 458L265 216L154 344Z" />
<glyph unicode="&#xd8;" glyph-name="Oslash" horiz-adv-x="1606" d="M425 -157L490 15Q360 54 289 126T189 295T160 501V963Q160 1075 188 1172T287 1344T486 1459T814 1501Q945 1501 1048 1479L1123 1676L1227 1638L1154 1447Q1268 1402 1331 1326T1420 1153T1446
948V517Q1446 408 1418 311T1321 137T1128 18T814 -26Q695 -26 598 -10L528 -195L425 -157ZM458 468Q458 382 489 329T579 247L962 1254Q901 1268 814 1268Q649 1268 554 1212T458 1003V468ZM814 207Q982 207 1065 262T1148 468V1003Q1148 1148 1064 1210L685 216Q740
207 814 207Z" />
<glyph unicode="&#xd9;" glyph-name="Ugrave" horiz-adv-x="1574" d="M796 -26Q607 -26 486 11T297 115T203 272T176 468V1477H473V455Q473 309 557 258T796 207Q952 207 1026 259T1101 455V1477H1398V480Q1398 375 1373 283T1284 122T1101 13T796 -26ZM785 2022L947
1657H748L467 2022H785Z" />
<glyph unicode="&#xda;" glyph-name="Uacute" horiz-adv-x="1574" d="M796 -26Q607 -26 486 11T297 115T203 272T176 468V1477H473V455Q473 309 557 258T796 207Q952 207 1026 259T1101 455V1477H1398V480Q1398 375 1373 283T1284 122T1101 13T796 -26ZM789 2022H1107L826
1657H627L789 2022Z" />
<glyph unicode="&#xdb;" glyph-name="Ucircumflex" horiz-adv-x="1574" d="M796 -26Q607 -26 486 11T297 115T203 272T176 468V1477H473V455Q473 309 557 258T796 207Q952 207 1026 259T1101 455V1477H1398V480Q1398 375 1373 283T1284 122T1101 13T796 -26ZM411
1638L688 1993H886L1163 1638H984L787 1813L590 1638H411Z" />
<glyph unicode="&#xdc;" glyph-name="Udieresis" horiz-adv-x="1574" d="M796 -26Q607 -26 486 11T297 115T203 272T176 468V1477H473V455Q473 309 557 258T796 207Q952 207 1026 259T1101 455V1477H1398V480Q1398 375 1373 283T1284 122T1101 13T796 -26ZM450
1916H714V1683H450V1916ZM859 1916H1124V1683H859V1916Z" />
<glyph unicode="&#xdd;" glyph-name="Yacute" horiz-adv-x="1304" d="M509 567L0 1476H313L659 842L1004 1476H1304L805 567V0H509V567ZM654 2022H972L691 1657H492L654 2022Z" />
<glyph unicode="&#xde;" glyph-name="Thorn" horiz-adv-x="1362" d="M216 1476H513V1240H806Q970 1240 1072 1202T1223 1071T1272 811Q1272 640 1229 541T1079 399T778 356H513V0H216V1476ZM825 567Q900 567 938 587T990 658T1004 797Q1004 913 972 973T834 1033H513V567H825Z"
/>
<glyph unicode="&#xdf;" glyph-name="germandbls" horiz-adv-x="1286" d="M140 0V1116Q140 1267 207 1350T389 1466T652 1500Q888 1500 1001 1405T1114 1148Q1114 1052 1085 983T993 876Q1048 855 1098 809T1180 682T1212 479Q1212 297 1154 190T965 37T611 -10L588
190Q757 190 839 248T922 466Q922 579 888 636T787 713T618 733V923Q740 923 788 967T837 1129Q837 1230 787 1270T644 1310Q450 1310 450 1134V0H140Z" />
<glyph unicode="&#xe0;" glyph-name="agrave" horiz-adv-x="1174" d="M423 -23Q285 -23 199 57T112 270Q112 346 143 405T256 514T491 613Q616 653 675 687T735 777Q735 842 697 874T566 907Q464 907 432 867T399 765V723H144V755Q144 911 248 1004T572 1097Q733
1097 827 1052T962 926T1003 733V308Q1003 235 1021 213T1090 190L1079 -8H1022Q910 -8 848 23T757 119Q714 62 628 20T423 -23ZM514 158Q564 158 631 186T735 272V544Q708 522 649 496T522 444Q433 411 405 371T377 285Q377 220 415 189T514 158ZM580 1621L702
1256H553L312 1621H580Z" />
<glyph unicode="&#xe1;" glyph-name="aacute" horiz-adv-x="1174" d="M423 -23Q285 -23 199 57T112 270Q112 346 143 405T256 514T491 613Q616 653 675 687T735 777Q735 842 697 874T566 907Q464 907 432 867T399 765V723H144V755Q144 911 248 1004T572 1097Q733
1097 827 1052T962 926T1003 733V308Q1003 235 1021 213T1090 190L1079 -8H1022Q910 -8 848 23T757 119Q714 62 628 20T423 -23ZM514 158Q564 158 631 186T735 272V544Q708 522 649 496T522 444Q433 411 405 371T377 285Q377 220 415 189T514 158ZM564 1620H832L591
1255H442L564 1620Z" />
<glyph unicode="&#xe2;" glyph-name="acircumflex" horiz-adv-x="1174" d="M423 -23Q285 -23 199 57T112 270Q112 346 143 405T256 514T491 613Q616 653 675 687T735 777Q735 842 697 874T566 907Q464 907 432 867T399 765V723H144V755Q144 911 248 1004T572 1097Q733
1097 827 1052T962 926T1003 733V308Q1003 235 1021 213T1090 190L1079 -8H1022Q910 -8 848 23T757 119Q714 62 628 20T423 -23ZM514 158Q564 158 631 186T735 272V544Q708 522 649 496T522 444Q433 411 405 371T377 285Q377 220 415 189T514 158ZM197 1256L474
1621H672L949 1256H770L573 1440L376 1256H197Z" />
<glyph unicode="&#xe3;" glyph-name="atilde" horiz-adv-x="1174" d="M423 -23Q285 -23 199 57T112 270Q112 346 143 405T256 514T491 613Q616 653 675 687T735 777Q735 842 697 874T566 907Q464 907 432 867T399 765V723H144V755Q144 911 248 1004T572 1097Q733
1097 827 1052T962 926T1003 733V308Q1003 235 1021 213T1090 190L1079 -8H1022Q910 -8 848 23T757 119Q714 62 628 20T423 -23ZM514 158Q564 158 631 186T735 272V544Q708 522 649 496T522 444Q433 411 405 371T377 285Q377 220 415 189T514 158ZM698 1301Q633
1301 592 1316T522 1352T471 1388T417 1404Q389 1404 371 1384T353 1317H219Q219 1457 281 1517T446 1577Q512 1577 552 1562T619 1526T668 1491T719 1475Q749 1475 770 1494T791 1561H925Q925 1421 863 1361T698 1301Z" />
<glyph unicode="&#xe4;" glyph-name="adieresis" horiz-adv-x="1174" d="M423 -23Q285 -23 199 57T112 270Q112 346 143 405T256 514T491 613Q616 653 675 687T735 777Q735 842 697 874T566 907Q464 907 432 867T399 765V723H144V755Q144 911 248 1004T572 1097Q733
1097 827 1052T962 926T1003 733V308Q1003 235 1021 213T1090 190L1079 -8H1022Q910 -8 848 23T757 119Q714 62 628 20T423 -23ZM514 158Q564 158 631 186T735 272V544Q708 522 649 496T522 444Q433 411 405 371T377 285Q377 220 415 189T514 158ZM235 1544H499V1311H235V1544ZM644
1544H909V1311H644V1544Z" />
<glyph unicode="&#xe5;" glyph-name="aring" horiz-adv-x="1174" d="M423 -23Q285 -23 199 57T112 270Q112 346 143 405T256 514T491 613Q616 653 675 687T735 777Q735 842 697 874T566 907Q464 907 432 867T399 765V723H144V755Q144 911 248 1004T572 1097Q733
1097 827 1052T962 926T1003 733V308Q1003 235 1021 213T1090 190L1079 -8H1022Q910 -8 848 23T757 119Q714 62 628 20T423 -23ZM514 158Q564 158 631 186T735 272V544Q708 522 649 496T522 444Q433 411 405 371T377 285Q377 220 415 189T514 158ZM572 1198Q446
1198 374 1263T302 1448Q302 1567 374 1631T572 1696Q697 1696 769 1632T842 1448Q842 1328 770 1263T572 1198ZM572 1357Q609 1357 633 1375T658 1447Q658 1500 634 1519T571 1539Q534 1539 510 1521T486 1449Q486 1395 510 1376T572 1357Z" />
<glyph unicode="&#xe6;" glyph-name="ae" horiz-adv-x="1734" d="M420 -23Q282 -23 199 56T112 268Q110 344 130 401T222 502T448 586Q553 613 617 628T710 672T739 770Q739 832 701 870T567 908Q464 908 432 863T400 755V719H144V745Q144 901 248 999T573 1097Q674
1097 758 1066T878 967Q932 1033 1010 1065T1187 1097Q1350 1097 1445 1054T1582 932T1624 745V514H1012V321Q1012 233 1058 200T1190 166Q1252 166 1291 177T1349 229T1370 353H1622Q1619 197 1571 116T1427 6T1186 -23Q929 -23 847 130Q762 56 667 17T420 -23ZM1012
655H1371V765Q1371 854 1323 880T1193 907Q1111 907 1062 877T1012 760V655ZM515 157Q565 157 633 179T739 259V520Q720 504 661 484T527 447Q429 425 401 381T373 290Q375 227 411 192T515 157Z" />
<glyph unicode="&#xe7;" glyph-name="ccedilla" horiz-adv-x="1111" d="M573 -23Q390 -23 293 25T160 154T124 327V757Q124 918 241 1007T569 1097Q714 1097 811 1062T959 940T1009 699L753 679Q753 777 739 825T687 890T579 907Q492 907 444 873T396 756V322Q396
236 441 202T579 168Q650 168 688 183T740 243T754 380H1008Q1008 232 971 144T839 16T573 -23ZM419 -485V-363H597Q629 -363 641 -350T653 -317V-259Q653 -239 639 -226T597 -213H507V30H638V-93Q728 -103 769 -145T811 -262V-312Q811 -383 765 -434T606 -485H419Z"
/>
<glyph unicode="&#xe8;" glyph-name="egrave" horiz-adv-x="1149" d="M124 336V755Q124 919 248 1008T582 1097Q830 1097 934 1002T1039 745V485H396V310Q396 215 445 191T591 166Q707 166 746 198T786 330H1038Q1038 131 926 54T586 -23Q455 -23 350 9T185 120T124
336ZM782 651V777Q782 837 757 864T688 899T589 907Q507 907 452 883T396 772V651H782ZM600 1621L722 1256H573L332 1621H600Z" />
<glyph unicode="&#xe9;" glyph-name="eacute" horiz-adv-x="1149" d="M124 336V755Q124 919 248 1008T582 1097Q830 1097 934 1002T1039 745V485H396V310Q396 215 445 191T591 166Q707 166 746 198T786 330H1038Q1038 131 926 54T586 -23Q455 -23 350 9T185 120T124
336ZM782 651V777Q782 837 757 864T688 899T589 907Q507 907 452 883T396 772V651H782ZM584 1620H852L611 1255H462L584 1620Z" />
<glyph unicode="&#xea;" glyph-name="ecircumflex" horiz-adv-x="1149" d="M124 336V755Q124 919 248 1008T582 1097Q830 1097 934 1002T1039 745V485H396V310Q396 215 445 191T591 166Q707 166 746 198T786 330H1038Q1038 131 926 54T586 -23Q455 -23 350 9T185
120T124 336ZM782 651V777Q782 837 757 864T688 899T589 907Q507 907 452 883T396 772V651H782ZM217 1256L494 1621H692L969 1256H790L593 1440L396 1256H217Z" />
<glyph unicode="&#xeb;" glyph-name="edieresis" horiz-adv-x="1149" d="M124 336V755Q124 919 248 1008T582 1097Q830 1097 934 1002T1039 745V485H396V310Q396 215 445 191T591 166Q707 166 746 198T786 330H1038Q1038 131 926 54T586 -23Q455 -23 350 9T185
120T124 336ZM782 651V777Q782 837 757 864T688 899T589 907Q507 907 452 883T396 772V651H782ZM255 1544H519V1311H255V1544ZM664 1544H929V1311H664V1544Z" />
<glyph unicode="&#xec;" glyph-name="igrave" horiz-adv-x="519" d="M124 1074H395V0H124V1074ZM267 1621L389 1256H240L-1 1621H267Z" />
<glyph unicode="&#xed;" glyph-name="iacute" horiz-adv-x="519" d="M124 1074H395V0H124V1074ZM251 1620H519L278 1255H129L251 1620Z" />
<glyph unicode="&#xee;" glyph-name="icircumflex" horiz-adv-x="488" d="M-76 1245L161 1610H359L596 1245H417L260 1422L103 1245H-76ZM124 1074H395V0H124V1074Z" />
<glyph unicode="&#xef;" glyph-name="idieresis" horiz-adv-x="519" d="M124 1074H395V0H124V1074ZM-78 1544H186V1311H-78V1544ZM331 1544H596V1311H331V1544Z" />
<glyph unicode="&#xf0;" glyph-name="eth" horiz-adv-x="1256" d="M641 -23Q405 -23 286 75T166 342V658Q166 772 222 852T373 973T585 1015Q672 1015 728 998T808 961Q773 1233 596 1284L507 1110L388 1167L465 1318Q401 1329 343 1332T233 1335L257 1502Q335
1502 398 1498T546 1483L632 1655L752 1598L678 1448Q803 1412 904 1304T1064 1027T1124 636V460Q1124 328 1079 218T929 43T641 -23ZM641 178Q738 178 783 205T841 287T854 428Q854 463 852 521T844 647T831 776Q799 799 750 816T641 833Q554 833 496 792T438
652V333Q438 249 488 214T641 178Z" />
<glyph unicode="&#xf1;" glyph-name="ntilde" horiz-adv-x="1254" d="M160 1074H432V979Q494 1032 569 1065T761 1098Q882 1098 957 1054T1067 935T1102 770V0H830V755Q830 812 801 842T728 883T641 894Q592 894 544 876T464 823T432 735V0H160V1074ZM768 1301Q703
1301 662 1316T592 1352T541 1388T487 1404Q459 1404 441 1384T423 1317H289Q289 1457 351 1517T516 1577Q582 1577 622 1562T689 1526T738 1491T789 1475Q819 1475 840 1494T861 1561H995Q995 1421 933 1361T768 1301Z" />
<glyph unicode="&#xf2;" glyph-name="ograve" horiz-adv-x="1180" d="M590 -23Q336 -23 230 71T124 325V748Q124 912 246 1004T590 1097Q810 1097 933 1005T1056 748V325Q1056 219 1012 141T867 20T590 -23ZM590 166Q677 166 730 198T784 313V760Q784 842 733
874T590 907Q502 907 449 875T396 760V313Q396 231 446 199T590 166ZM600 1621L722 1256H573L332 1621H600Z" />
<glyph unicode="&#xf3;" glyph-name="oacute" horiz-adv-x="1180" d="M590 -23Q336 -23 230 71T124 325V748Q124 912 246 1004T590 1097Q810 1097 933 1005T1056 748V325Q1056 219 1012 141T867 20T590 -23ZM590 166Q677 166 730 198T784 313V760Q784 842 733
874T590 907Q502 907 449 875T396 760V313Q396 231 446 199T590 166ZM584 1620H852L611 1255H462L584 1620Z" />
<glyph unicode="&#xf4;" glyph-name="ocircumflex" horiz-adv-x="1180" d="M590 -23Q336 -23 230 71T124 325V748Q124 912 246 1004T590 1097Q810 1097 933 1005T1056 748V325Q1056 219 1012 141T867 20T590 -23ZM590 166Q677 166 730 198T784 313V760Q784 842
733 874T590 907Q502 907 449 875T396 760V313Q396 231 446 199T590 166ZM217 1256L494 1621H692L969 1256H790L593 1440L396 1256H217Z" />
<glyph unicode="&#xf5;" glyph-name="otilde" horiz-adv-x="1180" d="M590 -23Q336 -23 230 71T124 325V748Q124 912 246 1004T590 1097Q810 1097 933 1005T1056 748V325Q1056 219 1012 141T867 20T590 -23ZM590 166Q677 166 730 198T784 313V760Q784 842 733
874T590 907Q502 907 449 875T396 760V313Q396 231 446 199T590 166ZM718 1301Q653 1301 612 1316T542 1352T491 1388T437 1404Q409 1404 391 1384T373 1317H239Q239 1457 301 1517T466 1577Q532 1577 572 1562T639 1526T688 1491T739 1475Q769 1475 790 1494T811
1561H945Q945 1421 883 1361T718 1301Z" />
<glyph unicode="&#xf6;" glyph-name="odieresis" horiz-adv-x="1180" d="M590 -23Q336 -23 230 71T124 325V748Q124 912 246 1004T590 1097Q810 1097 933 1005T1056 748V325Q1056 219 1012 141T867 20T590 -23ZM590 166Q677 166 730 198T784 313V760Q784 842 733
874T590 907Q502 907 449 875T396 760V313Q396 231 446 199T590 166ZM255 1544H519V1311H255V1544ZM664 1544H929V1311H664V1544Z" />
<glyph unicode="&#xf7;" glyph-name="divide" horiz-adv-x="966" d="M369 803V1032H597V803H369ZM132 487V649H834V487H132ZM369 104V333H597V104H369Z" />
<glyph unicode="&#xf8;" glyph-name="oslash" horiz-adv-x="1180" d="M279 -187L349 9Q229 47 177 128T124 325V748Q124 912 246 1004T590 1097Q669 1097 737 1084L810 1287L901 1260L829 1060Q938 1020 997 941T1056 748V325Q1056 219 1012 141T867 20T590 -23Q510
-23 444 -13L372 -214L279 -187ZM396 313Q396 252 425 218L670 900Q636 907 590 907Q502 907 449 875T396 760V313ZM590 166Q677 166 730 198T784 313V760Q784 820 755 854L511 173Q544 166 590 166Z" />
<glyph unicode="&#xf9;" glyph-name="ugrave" horiz-adv-x="1251" d="M485 -23Q331 -23 242 66T152 291V1074H424V335Q424 279 452 246T522 197T606 182Q656 182 705 199T786 253T819 350V1074H1091V0H835L827 118Q795 51 696 14T485 -23ZM641 1621L763 1256H614L373
1621H641Z" />
<glyph unicode="&#xfa;" glyph-name="uacute" horiz-adv-x="1251" d="M485 -23Q331 -23 242 66T152 291V1074H424V335Q424 279 452 246T522 197T606 182Q656 182 705 199T786 253T819 350V1074H1091V0H835L827 118Q795 51 696 14T485 -23ZM625 1620H893L652 1255H503L625
1620Z" />
<glyph unicode="&#xfb;" glyph-name="ucircumflex" horiz-adv-x="1251" d="M485 -23Q331 -23 242 66T152 291V1074H424V335Q424 279 452 246T522 197T606 182Q656 182 705 199T786 253T819 350V1074H1091V0H835L827 118Q795 51 696 14T485 -23ZM258 1256L535 1621H733L1010
1256H831L634 1440L437 1256H258Z" />
<glyph unicode="&#xfc;" glyph-name="udieresis" horiz-adv-x="1251" d="M485 -23Q331 -23 242 66T152 291V1074H424V335Q424 279 452 246T522 197T606 182Q656 182 705 199T786 253T819 350V1074H1091V0H835L827 118Q795 51 696 14T485 -23ZM296 1544H560V1311H296V1544ZM705
1544H970V1311H705V1544Z" />
<glyph unicode="&#xfd;" glyph-name="yacute" horiz-adv-x="1103" d="M148 -485L128 -260Q229 -245 302 -185T422 -3L439 41L34 1074H305L572 346L798 1074H1069L698 12Q611 -237 477 -349T148 -485ZM544 1620H812L571 1255H422L544 1620Z" />
<glyph unicode="&#xfe;" glyph-name="thorn" horiz-adv-x="1206" d="M160 1516H433V1036Q480 1062 541 1078T670 1095Q865 1095 973 1001T1082 751V326Q1082 234 1034 154T888 25T638 -24Q574 -24 524 -12T433 17V-410H160V1516ZM616 165Q708 165 758 201T809
320V755Q809 835 760 870T625 906Q559 906 508 885T433 841V213Q462 193 503 179T616 165Z" />
<glyph unicode="&#xff;" glyph-name="ydieresis" horiz-adv-x="1103" d="M148 -485L128 -260Q229 -245 302 -185T422 -3L439 41L34 1074H305L572 346L798 1074H1069L698 12Q611 -237 477 -349T148 -485ZM215 1544H479V1311H215V1544ZM624 1544H889V1311H624V1544Z" />
<glyph unicode="&#x2013;" glyph-name="endash" horiz-adv-x="874" d="M0 474V662H874V474H0Z" />
<glyph unicode="&#x2014;" glyph-name="emdash" horiz-adv-x="1399" d="M0 474V662H1399V474H0Z" />
<glyph unicode="&#x2018;" glyph-name="quoteleft" horiz-adv-x="834" d="M256 900V1123Q256 1224 292 1314T374 1470T452 1565L559 1519Q534 1490 500 1436T439 1313T413 1176H578V900H256Z" />
<glyph unicode="&#x2019;" glyph-name="quoteright" horiz-adv-x="834" d="M382 870L275 916Q301 945 335 999T395 1122T421 1259H256V1535H578V1312Q578 1212 542 1122T460 965T382 870Z" />
<glyph unicode="&#x201a;" glyph-name="quotesinglbase" horiz-adv-x="874" d="M315 -343Q341 -314 375 -260T435 -137T461 0H296V276H618V53Q618 -47 582 -137T500 -294T422 -389L315 -343Z" />
<glyph unicode="&#x201c;" glyph-name="quotedblleft" horiz-adv-x="1293" d="M715 900V1123Q715 1224 751 1314T833 1470T911 1565L1018 1519Q993 1490 959 1436T898 1313T872 1176H1037V900H715ZM256 900V1123Q256 1224 292 1314T374 1470T452 1565L559 1519Q534
1490 500 1436T439 1313T413 1176H578V900H256Z" />
<glyph unicode="&#x201d;" glyph-name="quotedblright" horiz-adv-x="1333" d="M422 870L315 916Q341 945 375 999T435 1122T461 1259H296V1535H618V1312Q618 1212 582 1122T500 965T422 870ZM881 870L774 916Q800 945 834 999T894 1122T920 1259H755V1535H1077V1312Q1077
1212 1041 1122T959 965T881 870Z" />
<glyph unicode="&#x201e;" glyph-name="quotedblbase" horiz-adv-x="1333" d="M422 -389L315 -343Q341 -314 375 -260T435 -137T461 0H296V276H618V53Q618 -47 582 -137T500 -294T422 -389ZM881 -389L774 -343Q800 -314 834 -260T894 -137T920 0H755V276H1077V53Q1077
-47 1041 -137T959 -294T881 -389Z" />
<glyph unicode="&#x2022;" glyph-name="bullet" horiz-adv-x="1024" d="M512 295Q351 295 278 373T205 600Q205 747 278 826T513 905Q674 905 747 826T820 600Q820 453 747 374T512 295Z" />
<glyph unicode="&#x2039;" glyph-name="guilsinglleft" horiz-adv-x="612" d="M67 530L340 980L487 910L280 530L487 150L347 80L67 530Z" />
<glyph unicode="&#x203a;" glyph-name="guilsinglright" horiz-adv-x="612" d="M154 150L361 530L154 910L294 980L574 530L301 80L154 150Z" />
</font>
</defs>
</svg>
